# xmcd CD database file
#
# Track frame offsets:
#	150
#	22152
#	40286
#	60525
#	78665
#	98510
#	120764
#	137348
#	149498
#	163890
#	182704
#	197100
#	216725
#	230332
#
# Disc length: 3297 seconds
#
# Revision: 0
# Processed by: cddbd v1.5.2PL0 Copyright (c) Steve Scherf et al.
# Submitted via: CDex 1.70beta2
#
DISCID=c70cdf0e
DTITLE=Fruko y sus Tesos - La Verdadera Historia de ...
DYEAR=2005
DGENRE=Salsa
TTITLE0=El Preso
TTITLE1=El Ausente
TTITLE2=Mi Libertad
TTITLE3=La Fruta Bomba
TTITLE4=El Swing de Fruko
TTITLE5=Cachondea
TTITLE6=Tania
TTITLE7=Cita a las Seis
TTITLE8=La Cara del Payaso
TTITLE9=Tu Sufriras
TTITLE10=Camina y Prende el Fogon
TTITLE11=A la Memoria del Muerto
TTITLE12=Corazon Vacante
TTITLE13=Si te Contara
EXTD=YEAR: 2005
EXTT0=
EXTT1=
EXTT2=
EXTT3=
EXTT4=
EXTT5=
EXTT6=
EXTT7=
EXTT8=
EXTT9=
EXTT10=
EXTT11=
EXTT12=
EXTT13=
PLAYORDER=
